<?xml version="1.0" standalone="no"?>
<!DOCTYPE svg PUBLIC "-//W3C//DTD SVG 20010904//EN"
 "http://www.w3.org/TR/2001/REC-SVG-20010904/DTD/svg10.dtd">
<svg version="1.0" xmlns="http://www.w3.org/2000/svg"
 width="800.000000pt" height="805.000000pt" viewBox="0 0 800.000000 805.000000"
 preserveAspectRatio="xMidYMid meet">
<metadata>
Created by potrace 1.16, written by Peter Selinger 2001-2019
</metadata>
<g transform="translate(0.000000,805.000000) scale(0.100000,-0.100000)"
fill="#000000" stroke="none">
<path d="M0 4025 l0 -4025 4000 0 4000 0 0 4025 0 4025 -4000 0 -4000 0 0
-4025z m7880 -10 l0 -3895 -3895 0 -3895 0 0 3895 0 3895 3895 0 3895 0 0
-3895z"/>
<path d="M180 4015 l0 -3805 3805 0 3805 0 0 3805 0 3805 -3805 0 -3805 0 0
-3805z m5972 2349 c5 -3 8 -10 8 -15 0 -7 -15 -8 -39 -4 -102 17 -110 -62 -9
-94 62 -20 85 -77 49 -122 -16 -19 -29 -24 -69 -24 -49 0 -91 20 -75 36 5 5
23 4 40 -3 24 -9 38 -9 58 0 55 25 38 67 -39 96 -73 28 -87 102 -26 133 23 12
81 10 102 -3z m18 -409 c0 -12 -13 -15 -60 -15 l-60 0 0 -45 0 -45 50 0 c38 0
50 -4 50 -15 0 -11 -12 -15 -50 -15 l-50 0 0 -50 0 -50 60 0 c47 0 60 -3 60
-15 0 -12 -15 -15 -75 -15 l-75 0 0 140 0 140 75 0 c60 0 75 -3 75 -15z m20
-410 c0 -11 -11 -15 -40 -15 l-40 0 0 -120 c0 -100 -2 -120 -15 -120 -12 0
-15 20 -15 120 l0 120 -35 0 c-24 0 -35 5 -35 15 0 12 17 15 90 15 73 0 90 -3
90 -15z m-4812 -587 l-3 -513 -60 -3 c-32 -2 -69 -1 -82 3 l-23 5 0 510 0 510
85 0 85 0 -2 -512z m400 302 c41 -113 86 -238 100 -279 l27 -74 5 279 5 279
79 3 c57 2 82 -1 87 -10 5 -7 9 -234 9 -505 0 -477 -1 -493 -19 -503 -24 -12
-121 -13 -140 -1 -15 10 -45 86 -144 373 -34 98 -65 178 -69 178 -4 0 -9 -125
-10 -277 l-3 -278 -60 -3 c-32 -2 -69 -1 -82 3 l-23 5 0 511 0 510 82 -3 83
-3 73 -205z m630 198 c8 -8 12 -68 13 -202 l0 -191 100 203 99 202 84 0 c47 0
87 -4 91 -10 3 -5 -28 -76 -68 -157 -41 -81 -91 -185 -111 -230 l-38 -81 55
-129 c30 -70 77 -175 104 -233 66 -140 76 -167 68 -179 -9 -15 -147 -14 -167
2 -9 6 -26 35 -36 62 -11 28 -47 112 -80 189 l-60 138 -19 -33 c-14 -28 -19
-64 -23 -192 -4 -125 -8 -160 -20 -167 -17 -11 -120 -13 -144 -4 -14 5 -16 60
-16 508 0 277 3 506 7 509 12 12 148 8 161 -5z m968 -9 c59 -28 87 -87 92
-192 2 -42 1 -89 -2 -102 -6 -25 -8 -26 -89 -23 l-82 3 -3 70 c-2 38 -8 75
-14 82 -13 17 -120 17 -136 1 -8 -8 -12 -48 -12 -113 l0 -101 154 -53 c85 -29
162 -61 170 -70 13 -14 16 -46 16 -177 0 -267 -30 -318 -198 -331 -109 -8
-204 4 -244 30 -54 36 -71 84 -72 201 l-1 101 85 0 85 0 5 -72 c3 -39 8 -75
12 -78 13 -13 93 -17 121 -6 l27 11 0 102 0 103 -32 11 c-18 6 -91 31 -161 54
-111 37 -130 46 -139 69 -6 16 -8 95 -6 201 4 154 7 180 26 216 21 41 51 67
87 77 11 2 76 5 144 6 107 1 131 -2 167 -20z m414 -488 c0 -574 9 -521 -85
-521 -94 0 -85 -52 -85 514 0 277 3 506 7 509 3 4 42 7 85 7 l78 0 0 -509z
m597 483 c15 -12 37 -36 48 -55 19 -32 20 -55 23 -409 2 -259 0 -388 -8 -416
-13 -47 -49 -90 -88 -106 -15 -6 -111 -13 -214 -16 l-188 -4 -10 26 c-11 29
-14 964 -3 992 5 13 32 15 209 12 188 -3 205 -5 231 -24z m737 10 c8 -20 8
-118 0 -138 -5 -14 -30 -16 -175 -16 l-170 0 3 -127 3 -128 127 -3 c146 -3
142 0 136 -103 l-3 -54 -130 -5 -130 -5 0 -130 0 -130 170 -5 170 -5 3 -70 c2
-57 0 -72 -14 -82 -25 -18 -474 -19 -492 -1 -9 9 -12 136 -12 508 0 273 3 500
7 503 3 4 118 7 254 7 216 0 248 -2 253 -16z m1563 -290 c18 -28 14 -124 -6
-148 -17 -20 -75 -21 -90 -2 -7 9 -11 42 -9 87 3 66 6 75 26 85 31 15 60 7 79
-22z m553 -70 c0 -72 -3 -95 -12 -92 -9 3 -14 30 -16 78 -2 55 -7 77 -20 86
-16 12 -15 13 8 22 14 5 28 8 33 5 4 -2 7 -47 7 -99z m138 84 c17 -14 15 -63
-2 -78 -8 -6 -24 -27 -35 -46 l-20 -34 39 0 c22 0 40 -4 40 -10 0 -5 -25 -10
-55 -10 -32 0 -55 4 -55 10 0 6 19 37 41 70 49 69 47 90 -8 90 -36 1 -37 2
-19 15 20 15 49 12 74 -7z m-848 -84 c0 -72 -3 -95 -12 -92 -9 3 -14 31 -16
81 -2 59 -6 77 -17 77 -16 0 -20 12 -8 23 3 4 17 7 30 7 22 0 23 -2 23 -96z
m380 1 c0 -57 -4 -95 -10 -95 -6 0 -10 33 -10 80 0 64 -3 80 -15 80 -16 0 -20
12 -8 23 3 4 15 7 25 7 16 0 18 -10 18 -95z m100 0 c0 -57 -4 -95 -10 -95 -6
0 -10 33 -10 79 0 62 -3 80 -16 85 -20 8 -9 26 17 26 17 0 19 -8 19 -95z
m-840 45 c0 -6 -27 -10 -60 -10 l-60 0 0 -44 0 -45 47 -3 c64 -4 69 -26 6 -30
l-48 -3 -3 -47 -3 -48 60 0 c48 0 61 -3 61 -15 0 -12 -15 -15 -75 -15 l-75 0
0 135 0 135 75 0 c43 0 75 -4 75 -10z m618 -67 c-10 -2 -26 -2 -35 0 -10 3 -2
5 17 5 19 0 27 -2 18 -5z m330 0 c-10 -2 -26 -2 -35 0 -10 3 -2 5 17 5 19 0
27 -2 18 -5z m-514 -267 c40 -17 59 -60 46 -106 -5 -17 -32 -62 -59 -99 -28
-38 -51 -71 -51 -75 0 -3 29 -6 65 -6 58 0 65 -2 65 -20 0 -19 -7 -20 -93 -20
-52 0 -97 3 -100 6 -9 9 3 29 78 129 44 60 65 97 65 116 0 38 -29 53 -86 44
-36 -5 -44 -3 -44 9 0 9 14 19 33 25 44 13 44 13 81 -3z m280 0 c23 -9 37 -24
45 -46 13 -40 15 -179 2 -213 -27 -71 -109 -90 -162 -38 -29 29 -29 31 -29
139 0 137 14 162 98 171 7 0 28 -5 46 -13z m250 0 c68 -28 65 -92 -9 -196 -30
-43 -55 -81 -55 -84 0 -3 28 -6 63 -8 47 -2 62 -7 62 -18 0 -12 -17 -15 -94
-15 -60 0 -96 4 -98 11 -2 6 16 36 41 66 58 72 106 148 106 169 0 33 -29 50
-81 47 -58 -4 -68 12 -19 29 45 15 45 15 84 -1z m226 -161 c0 -137 -2 -165
-14 -165 -22 0 -28 31 -26 133 3 154 3 156 -20 150 -14 -4 -20 0 -20 10 0 19
27 36 58 37 22 0 22 0 22 -165z m-1280 34 c19 -38 40 -75 47 -80 9 -8 22 10
53 70 22 45 45 81 50 81 6 0 10 -55 10 -141 0 -108 -3 -140 -12 -136 -9 2 -13
30 -14 88 -1 46 -2 89 -3 94 -1 6 -16 -17 -34 -49 -18 -33 -37 -61 -44 -64 -7
-2 -27 25 -45 60 l-33 63 -3 -97 c-2 -78 -6 -98 -17 -98 -13 0 -15 24 -15 140
0 166 9 176 60 69z m77 -361 c25 -24 32 -83 11 -91 -10 -3 -9 -12 5 -35 22
-39 22 -63 -4 -96 -18 -23 -27 -26 -85 -26 l-64 0 0 135 0 135 57 0 c44 0 62
-5 80 -22z m-4647 -123 c0 -24 -2 -25 -70 -25 l-70 0 0 -220 0 -220 -25 0
c-21 0 -25 5 -25 28 0 15 -2 113 -3 217 l-2 190 -67 3 c-65 3 -68 4 -68 27 l0
25 165 0 165 0 0 -25z m297 -105 c62 -176 123 -353 123 -357 0 -1 -13 -3 -30
-3 -25 0 -30 4 -36 35 -3 19 -10 38 -15 41 -5 3 -9 14 -9 25 0 18 -6 20 -97
17 l-96 -3 -20 -57 c-16 -49 -22 -58 -43 -58 -13 0 -24 4 -24 10 0 5 24 80 54
167 111 325 106 314 128 311 16 -2 30 -28 65 -128z m503 105 c0 -24 -2 -25
-70 -25 l-70 0 0 -220 0 -220 -25 0 -25 0 -2 218 -3 217 -67 3 c-65 3 -68 4
-68 27 l0 25 165 0 165 0 0 -25z m390 0 c0 -24 -2 -25 -65 -25 l-65 0 0 -220
0 -220 -30 0 -30 0 0 220 0 220 -70 0 c-61 0 -70 2 -70 18 0 10 3 22 7 25 3 4
78 7 165 7 l158 0 0 -25z m357 -5 c55 -40 67 -79 68 -215 0 -103 -3 -126 -21
-160 -68 -131 -265 -117 -303 21 -14 50 -14 213 0 267 21 82 76 119 169 114
39 -2 65 -10 87 -27z m431 3 c50 -37 66 -79 70 -183 7 -176 -26 -255 -118
-280 -79 -21 -160 13 -197 83 -34 67 -25 292 15 346 46 63 167 81 230 34z
m554 16 c56 -15 87 -47 102 -104 14 -57 7 -102 -26 -145 -27 -37 -61 -52 -138
-59 l-65 -6 -3 -82 c-3 -81 -3 -83 -27 -83 l-25 0 0 245 0 245 73 0 c39 0 89
-5 109 -11z m435 -12 c43 -23 73 -75 73 -126 0 -49 -11 -74 -51 -116 -26 -28
-27 -32 -14 -60 8 -16 26 -57 41 -90 14 -33 28 -63 31 -67 2 -5 -11 -8 -30 -8
-34 0 -35 1 -67 88 -18 48 -36 89 -41 92 -4 3 -30 3 -58 2 l-51 -4 0 -89 0
-89 -30 0 -30 0 0 246 0 246 98 -4 c64 -3 108 -10 129 -21z m441 -6 c48 -33
62 -85 62 -219 0 -102 -3 -124 -22 -162 -30 -58 -76 -85 -144 -84 -66 1 -117
32 -145 86 -19 37 -21 55 -17 172 4 151 16 182 83 217 51 26 140 21 183 -10z
m1225 -270 c13 -5 30 -23 36 -40 11 -26 10 -35 -9 -74 l-22 -44 21 -48 c25
-57 25 -55 5 -55 -9 0 -24 20 -37 50 -19 46 -24 50 -54 50 -33 0 -33 0 -33
-50 0 -38 -4 -50 -15 -50 -13 0 -15 22 -15 135 l0 135 49 0 c27 0 61 -4 74 -9z
m-1005 -323 c39 -39 71 -38 -1994 -38 -1371 0 -1985 3 -1989 10 -4 6 -4 17 -1
25 5 13 264 15 1989 15 1507 0 1986 -3 1995 -12z m1021 -83 c37 -19 41 -31 41
-124 0 -104 -19 -131 -90 -131 -72 0 -90 27 -90 134 0 84 7 104 45 124 28 16
61 15 94 -3z m-4568 -211 c7 -9 15 -44 17 -78 5 -77 -16 -110 -68 -108 -51 1
-73 30 -74 95 0 75 22 107 73 107 23 0 44 -6 52 -16z m134 -62 l40 -72 3 75
c4 116 22 90 22 -32 l-1 -108 -23 29 c-13 16 -34 50 -47 77 -12 27 -26 49 -31
49 -4 0 -8 -31 -8 -70 0 -40 -4 -70 -10 -70 -6 0 -10 40 -10 101 0 121 8 124
65 21z m265 -11 l0 -90 40 -3 c59 -4 49 -23 -12 -23 l-53 0 -3 103 c-2 86 0
102 13 102 12 0 15 -16 15 -89z m150 -16 c0 -63 -4 -105 -10 -105 -6 0 -10 42
-10 105 0 63 4 105 10 105 6 0 10 -42 10 -105z m86 88 c6 -10 23 -40 38 -68
43 -77 46 -76 46 8 0 45 4 77 10 77 13 0 13 -197 1 -205 -5 -3 -29 30 -53 72
l-43 78 -5 -75 c-7 -110 -24 -93 -28 28 -2 78 0 102 10 102 7 0 18 -8 24 -17z
m269 7 c-3 -5 -24 -10 -46 -10 -38 0 -39 -1 -39 -35 0 -33 2 -35 35 -35 19 0
35 -4 35 -10 0 -5 -15 -10 -34 -10 -31 0 -34 -3 -38 -35 -4 -34 -4 -34 39 -37
61 -4 53 -23 -9 -23 l-53 0 -3 103 -3 102 61 0 c38 0 59 -4 55 -10z m399 4
c30 -11 16 -23 -20 -17 -48 8 -64 -13 -64 -83 0 -63 24 -89 68 -73 28 11 41 4
24 -13 -20 -20 -73 -13 -94 11 -23 30 -25 127 -2 159 15 22 54 29 88 16z m186
-14 c27 -27 28 -127 2 -161 -26 -31 -78 -31 -104 0 -23 30 -25 127 -2 159 20
29 76 30 104 2z m135 -60 l40 -74 3 77 c2 59 6 77 17 77 12 0 15 -19 15 -99 0
-55 -4 -103 -10 -106 -9 -6 -80 94 -80 113 0 5 -7 15 -15 22 -13 11 -15 3 -15
-64 0 -44 -4 -76 -10 -76 -6 0 -10 42 -10 106 0 127 8 130 65 24z m155 0 c12
-44 26 -77 30 -75 4 3 13 26 19 52 17 70 32 103 46 103 14 0 -42 -181 -63
-202 -13 -13 -12 -16 -52 111 -20 65 -24 91 -15 91 7 0 22 -34 35 -80z m255
70 c-3 -5 -23 -10 -44 -10 -46 0 -49 -2 -43 -40 4 -27 8 -30 39 -30 20 0 32
-4 28 -10 -3 -5 -19 -10 -36 -10 -20 0 -29 -5 -30 -17 -1 -10 -2 -25 -3 -33
-1 -11 12 -16 42 -20 60 -7 53 -25 -10 -25 l-53 0 -3 103 -3 102 61 0 c38 0
59 -4 55 -10z m112 -60 c21 -38 41 -70 46 -70 4 0 7 32 7 70 0 40 4 70 10 70
6 0 10 -40 10 -100 0 -73 -3 -100 -12 -100 -7 0 -32 35 -55 78 l-43 77 0 -77
c0 -42 -4 -80 -10 -83 -6 -4 -10 32 -10 99 0 63 4 106 10 106 5 0 27 -31 47
-70z m253 60 c0 -5 -13 -10 -30 -10 l-30 0 0 -95 c0 -57 -4 -95 -10 -95 -6 0
-10 38 -10 95 0 94 0 95 -24 95 -14 0 -28 5 -31 10 -4 6 20 10 64 10 41 0 71
-4 71 -10z m68 -90 c-4 -134 -22 -135 -26 -2 -3 88 -1 102 13 102 13 0 15 -14
13 -100z m168 79 c25 -28 27 -140 3 -165 -26 -25 -88 -23 -110 5 -32 39 -23
148 15 173 22 15 73 8 92 -13z m125 -39 c59 -105 58 -104 59 -17 0 44 4 77 10
77 6 0 10 -42 10 -105 0 -124 -6 -126 -65 -25 -22 39 -43 70 -47 70 -4 0 -6
-31 -5 -70 1 -40 -2 -71 -8 -72 -6 -2 -11 37 -13 100 -3 123 8 131 59 42z
m-2441 -70 c0 -5 -13 -10 -30 -10 -16 0 -30 5 -30 10 0 6 14 10 30 10 17 0 30
-4 30 -10z m4599 -2072 c16 -18 39 -46 53 -61 l23 -29 53 61 c41 46 60 61 80
61 l27 0 -2 -137 -2 -138 -26 -3 -25 -3 0 90 c0 50 -3 91 -7 91 -3 0 -27 -23
-53 -51 l-46 -52 -43 52 c-23 28 -47 51 -53 51 -6 0 -8 -34 -7 -87 l3 -88 -27
-3 -27 -3 0 110 c0 105 -1 111 -20 111 -11 0 -23 -7 -26 -15 -9 -21 -24 -8
-24 20 0 31 35 55 82 55 30 0 44 -7 67 -32z m539 5 c-3 -27 -5 -28 -75 -31
-64 -3 -75 -6 -93 -29 -27 -35 -26 -78 5 -108 21 -22 33 -25 95 -25 38 0 70
-3 70 -7 0 -4 -10 -17 -22 -30 -28 -30 -89 -31 -148 0 -55 28 -83 76 -76 131
10 83 71 126 179 126 l68 0 -3 -27z m302 21 c0 -5 -75 -115 -117 -170 -12 -17
-23 -34 -23 -37 0 -4 27 -7 60 -7 45 0 62 4 66 15 9 21 24 8 24 -20 0 -42 -34
-55 -146 -55 -55 0 -103 3 -107 6 -7 7 37 74 102 154 l45 55 -75 5 c-41 3 -73
9 -72 15 9 46 5 45 127 45 64 0 116 -3 116 -6z m-1661 -348 c15 -8 34 -22 42
-32 12 -15 10 -20 -19 -44 -27 -22 -72 -111 -72 -141 0 -4 23 -6 50 -5 28 1
50 -1 50 -5 0 -19 -64 -58 -104 -64 -36 -6 -52 -3 -85 16 -22 12 -42 28 -45
35 -5 13 33 25 69 21 11 -1 19 3 18 8 -10 41 -36 96 -62 127 -35 41 -36 45
-18 62 38 38 124 49 176 22z m796 -151 l0 -135 -30 0 -30 0 0 135 0 135 30 0
30 0 0 -135z m209 73 c30 -35 66 -76 80 -93 l25 -30 1 93 0 92 30 0 30 0 0
-135 0 -135 -29 0 c-23 0 -42 15 -106 91 -42 50 -79 88 -82 85 -3 -3 -5 -44
-4 -91 l2 -85 -30 0 -31 0 0 135 0 135 29 0 c24 0 41 -12 85 -62z m356 7 l0
-55 33 0 c27 0 39 8 75 55 38 48 48 55 78 55 l35 0 -26 -32 c-80 -100 -79 -99
-66 -120 38 -60 136 -168 153 -168 27 0 17 -23 -15 -34 -33 -12 -59 11 -144
122 -50 64 -59 72 -89 72 l-34 0 0 -55 c0 -54 0 -55 -30 -55 l-30 0 0 110 c0
87 -3 110 -14 110 -7 0 -19 -7 -26 -15 -18 -21 -33 -7 -25 23 9 35 21 42 78
42 l47 0 0 -55z m298 -67 c15 -15 -2 -38 -28 -38 -26 0 -43 23 -28 38 7 7 19
12 28 12 9 0 21 -5 28 -12z m-1848 -48 c0 -5 -4 -10 -9 -10 -6 0 -13 5 -16 10
-3 6 1 10 9 10 9 0 16 -4 16 -10z m264 1 c3 -5 0 -11 -8 -14 -8 -3 -17 1 -20
9 -6 15 19 20 28 5z"/>
<path d="M4120 4955 l0 -345 63 0 c40 0 70 5 85 16 22 15 22 16 22 325 0 195
-4 318 -10 330 -9 16 -22 19 -85 19 l-75 0 0 -345z"/>
<path d="M6607 5164 c-4 -4 -7 -36 -7 -71 0 -50 4 -65 16 -70 34 -13 49 11 49
78 0 61 -1 64 -25 67 -14 2 -29 0 -33 -4z"/>
<path d="M6789 4764 c-9 -12 -14 -46 -14 -109 0 -104 15 -135 65 -135 48 0 60
26 60 132 0 79 -3 98 -18 111 -24 22 -76 22 -93 1z"/>
<path d="M6050 4264 l0 -47 36 6 c90 15 85 87 -5 87 -30 0 -31 -1 -31 -46z"/>
<path d="M6050 4151 l0 -51 43 0 c48 0 67 13 67 46 0 29 -19 43 -69 50 l-41 6
0 -51z"/>
<path d="M1737 4120 c-5 -12 -29 -89 -63 -202 -5 -16 3 -18 65 -18 50 0 71 4
71 13 0 29 -68 221 -73 207z"/>
<path d="M2904 4160 c-33 -13 -52 -52 -59 -123 -19 -173 18 -257 110 -257 38
0 52 5 75 28 24 24 29 39 35 104 12 126 -10 224 -54 248 -23 12 -77 12 -107 0z"/>
<path d="M3325 4147 c-58 -50 -61 -282 -5 -343 35 -36 107 -34 148 4 26 24 30
37 36 105 12 127 -8 223 -53 247 -35 18 -98 12 -126 -13z"/>
<path d="M3915 4158 c-3 -8 -4 -57 -3 -109 l3 -94 57 1 c72 2 104 21 118 74 9
33 8 47 -6 75 -22 48 -33 54 -102 61 -49 6 -63 4 -67 -8z"/>
<path d="M4310 4070 l0 -102 66 4 c58 4 70 8 90 32 31 36 32 91 1 129 -19 24
-32 28 -89 34 l-68 6 0 -103z"/>
<path d="M4747 4148 c-34 -34 -51 -122 -43 -216 9 -113 37 -152 110 -152 83 0
108 33 114 152 9 173 -16 227 -105 235 -45 5 -55 2 -76 -19z"/>
<path d="M6050 3850 l0 -50 40 0 c31 0 43 5 56 25 15 23 15 27 0 50 -13 20
-25 25 -56 25 l-40 0 0 -50z"/>
<path d="M6067 3482 c-21 -23 -24 -161 -5 -180 7 -7 29 -12 50 -12 48 0 58 18
58 108 0 54 -4 72 -18 85 -24 22 -65 21 -85 -1z"/>
<path d="M1500 3275 c-6 -14 -10 -39 -10 -55 0 -16 4 -41 10 -55 8 -22 15 -26
42 -23 27 2 34 9 42 35 5 20 5 50 0 75 -8 39 -12 43 -42 46 -27 3 -34 -1 -42
-23z"/>
<path d="M2990 3280 c-6 -11 -10 -44 -8 -73 3 -43 7 -53 27 -64 45 -22 61 -2
61 76 0 54 -4 70 -16 75 -29 11 -53 6 -64 -14z"/>
<path d="M4133 3273 c-9 -36 -9 -93 0 -115 9 -24 72 -25 81 -2 11 28 6 120 -6
132 -7 7 -25 12 -40 12 -22 0 -29 -6 -35 -27z"/>
</g>
</svg>
